<?xml version="1.0" standalone="no"?>
<!DOCTYPE svg PUBLIC "-//W3C//DTD SVG 20010904//EN"
 "http://www.w3.org/TR/2001/REC-SVG-20010904/DTD/svg10.dtd">
<svg version="1.0" xmlns="http://www.w3.org/2000/svg"
 width="1024.000000pt" height="1024.000000pt" viewBox="0 0 1024.000000 1024.000000"
 preserveAspectRatio="xMidYMid meet">
<g transform="translate(0.000000,1024.000000) scale(0.100000,-0.100000)"
fill="#000000" stroke="none">
<path d="M4770 10063 c-19 -1 -102 -10 -185 -19 -787 -81 -1550 -359 -2220
-807 -1156 -773 -1946 -2021 -2144 -3387 -40 -277 -46 -370 -46 -730 0 -359 6
-454 45 -725 132 -905 514 -1751 1119 -2475 125 -149 412 -437 571 -571 488
-412 1015 -713 1603 -915 714 -245 1491 -322 2257 -223 1488 191 2823 1069
3602 2369 370 617 590 1278 675 2022 22 193 25 796 5 988 -109 1050 -498 1960
-1181 2765 -46 55 -161 177 -255 271 -841 840 -1944 1347 -3121 1434 -127 9
-640 12 -725 3z m812 -299 c951 -97 1807 -460 2553 -1083 132 -110 467 -448
575 -581 593 -729 924 -1505 1046 -2450 21 -159 30 -717 15 -891 -42 -485
-141 -917 -308 -1344 -73 -186 -231 -509 -327 -670 -770 -1281 -2047 -2102
-3523 -2265 -207 -23 -646 -28 -858 -10 -723 62 -1355 259 -1976 616 -862 495
-1569 1296 -1959 2218 -186 442 -307 929 -351 1423 -18 207 -6 787 20 978 130
951 498 1771 1109 2475 121 140 391 405 527 519 733 610 1592 970 2540 1066
192 19 728 19 917 -1z"/>
<path d="M4873 9739 c-1204 -60 -2351 -602 -3164 -1494 -520 -571 -877 -1229
-1069 -1967 -141 -543 -181 -1142 -114 -1703 121 -1024 579 -1974 1300 -2700
391 -393 788 -678 1279 -916 484 -235 937 -368 1485 -435 180 -22 693 -30 889
-15 609 49 1138 196 1686 466 483 238 871 520 1256 911 552 563 931 1215 1148
1974 122 426 172 795 171 1275 0 724 -146 1357 -464 2010 -231 474 -510 867
-880 1239 -373 374 -758 649 -1240 887 -572 282 -1163 436 -1806 469 -214 11
-240 11 -477 -1z m1427 -3895 l0 -336 54 49 c70 64 139 87 241 81 218 -14 348
-208 306 -453 -21 -119 -78 -201 -176 -253 -45 -24 -61 -27 -150 -27 -117 0
-170 20 -236 88 l-39 41 0 -57 0 -57 -65 0 -65 0 0 623 c0 343 3 627 7 630 3
4 33 7 65 7 l58 0 0 -336z m-4337 71 c15 -6 17 -15 12 -49 -12 -76 1 -71 -167
-71 -176 0 -221 -11 -303 -73 -36 -27 -60 -56 -85 -106 -35 -69 -35 -70 -35
-200 0 -113 3 -139 23 -189 29 -70 98 -144 167 -177 73 -36 217 -41 297 -10
99 37 154 121 173 263 l6 47 -165 0 -166 0 0 60 0 60 231 0 231 0 -7 -102
c-12 -175 -40 -267 -105 -342 -41 -46 -113 -91 -179 -110 -62 -18 -222 -21
-290 -5 -109 25 -217 100 -277 195 -98 153 -110 400 -27 571 54 112 173 203
311 238 61 15 320 16 355 0z m1383 -290 c161 -48 254 -197 241 -386 -10 -144
-95 -269 -212 -315 -77 -29 -253 -27 -316 4 -75 37 -125 87 -161 159 -28 58
-33 79 -36 164 -7 158 35 251 149 337 64 48 235 67 335 37z m896 -13 c107 -48
179 -149 197 -276 25 -178 -51 -335 -198 -408 -63 -31 -239 -33 -316 -4 -70
27 -146 103 -181 179 -25 54 -28 74 -28 162 -1 75 4 112 18 150 40 104 106
170 209 207 72 26 231 20 299 -10z m1544 13 c59 -17 125 -71 158 -128 32 -54
49 -155 41 -229 l-7 -58 -263 0 -264 0 9 -32 c31 -105 118 -160 264 -166 50
-2 115 0 143 6 l53 9 6 -36 c3 -20 8 -44 10 -53 8 -26 -33 -33 -196 -33 -141
0 -147 1 -210 31 -90 43 -124 75 -162 152 -32 65 -33 70 -33 193 0 124 0 127
35 194 40 79 86 120 162 146 65 23 185 25 254 4z m1775 -17 c31 -14 74 -42 96
-61 110 -100 138 -309 63 -464 -35 -71 -82 -115 -160 -152 -48 -23 -68 -26
-160 -26 -92 0 -112 3 -160 26 -79 37 -125 81 -162 156 -27 55 -33 80 -36 155
-10 196 67 321 231 380 77 27 213 21 288 -14z m1299 -53 l0 -75 -75 0 -75 0 0
75 0 75 75 0 75 0 0 -75z m-6090 5 l0 -60 -140 0 -140 0 0 -290 0 -290 -65 0
-65 0 0 350 0 350 205 0 205 0 0 -60z m2014 -227 c55 -155 104 -279 107 -277
4 2 49 130 101 284 l93 280 73 0 c55 0 73 -3 70 -12 -3 -7 -63 -165 -133 -350
l-129 -338 -77 0 -77 0 -17 43 c-50 124 -255 648 -255 653 0 3 32 4 72 2 l71
-3 101 -282z m3325 163 c48 -66 91 -121 96 -122 6 -2 48 53 95 121 l85 124 73
1 c39 0 72 -2 72 -4 0 -2 -56 -81 -125 -176 l-124 -172 81 -111 c45 -62 102
-139 126 -172 l44 -60 -62 -3 c-35 -2 -68 -1 -75 2 -6 2 -53 61 -103 131 l-91
126 -43 -59 c-24 -33 -65 -91 -93 -130 l-50 -71 -74 -1 -73 0 17 27 c10 15 65
90 123 167 57 77 106 146 109 153 3 6 -47 83 -109 170 -63 87 -118 164 -122
171 -6 10 8 12 65 10 l73 -3 85 -119z m751 -496 l0 -80 -75 0 -75 0 0 80 0 80
75 0 75 0 0 -80z"/>
<path d="M6491 5519 c-96 -19 -163 -92 -183 -197 -31 -167 74 -304 234 -305
151 0 238 92 238 253 0 177 -121 282 -289 249z"/>
<path d="M3127 5505 c-109 -38 -167 -172 -133 -306 21 -80 55 -125 120 -155
88 -41 197 -29 262 28 48 43 76 101 82 174 9 117 -41 213 -133 255 -48 22
-143 24 -198 4z"/>
<path d="M3959 5492 c-39 -20 -62 -41 -84 -77 -28 -45 -30 -56 -30 -139 0
-104 18 -150 79 -204 65 -57 174 -69 262 -28 80 37 125 116 126 220 0 88 -19
144 -68 193 -71 71 -189 85 -285 35z"/>
<path d="M5581 5519 c-67 -27 -112 -84 -126 -162 l-7 -37 211 0 211 0 0 28
c-1 37 -24 99 -47 124 -44 50 -173 75 -242 47z"/>
<path d="M7347 5519 c-109 -17 -177 -100 -185 -224 -6 -93 15 -158 66 -208 49
-48 98 -67 172 -67 137 0 226 85 238 225 14 186 -109 302 -291 274z"/>
</g>
</svg>
